<svg width="82" height="82" viewBox="0 0 82 82" fill="none" xmlns="http://www.w3.org/2000/svg">
	<g>
		<animateTransform attributeType="XML" attributeName="transform" type="rotate" from="0 41 41" to="360 41 41" dur="15s" repeatCount="indefinite"/>
		<path d="M74.6868 41.8269C74.7021 41.2756 74.7021 40.7244 74.6868 40.1731L80.3984 33.0375C80.6979 32.6628 80.9052 32.2231 81.0036 31.7536C81.102 31.2842 81.0887 30.7982 80.9649 30.3348C80.0269 26.8158 78.6264 23.4368 76.7999 20.286C76.5606 19.8738 76.2283 19.5231 75.8296 19.2619C75.4308 19.0008 74.9766 18.8363 74.5031 18.7816L65.4228 17.7709C65.0451 17.3728 64.6622 16.99 64.2743 16.6225L63.2024 7.51921C63.1473 7.04534 62.9822 6.59089 62.7204 6.19212C62.4585 5.79334 62.1071 5.46125 61.6942 5.22234C58.5436 3.39727 55.1644 1.99924 51.6453 1.06499C51.1819 0.941191 50.696 0.927962 50.2265 1.02637C49.7571 1.12478 49.3173 1.33207 48.9427 1.63155L41.8262 7.31249C41.2749 7.31249 40.7237 7.31249 40.1724 7.31249L33.0368 1.61241C32.6622 1.31293 32.2224 1.10564 31.753 1.00723C31.2835 0.908821 30.7976 0.92205 30.3342 1.04585C26.8152 1.98385 23.4361 3.38439 20.2853 5.21085C19.8731 5.45021 19.5225 5.78249 19.2613 6.18124C19.0001 6.57999 18.8356 7.0342 18.7809 7.50773L17.7703 16.6034C17.3721 16.9836 16.9893 17.3664 16.6218 17.7518L7.51854 18.7969C7.04466 18.852 6.59022 19.0171 6.19144 19.2789C5.79267 19.5408 5.46058 19.8922 5.22166 20.3051C3.39698 23.4563 1.99775 26.8353 1.06049 30.354C0.937215 30.8177 0.924606 31.3038 1.02368 31.7733C1.12276 32.2427 1.33075 32.6823 1.63088 33.0566L7.31182 40.1731C7.31182 40.7244 7.31182 41.2756 7.31182 41.8269L1.61174 48.9625C1.31226 49.3371 1.10497 49.7769 1.00656 50.2463C0.90815 50.7158 0.921378 51.2018 1.04518 51.6651C1.98317 55.1842 3.38372 58.5632 5.21018 61.714C5.44954 62.1262 5.78182 62.4769 6.18057 62.738C6.57932 62.9992 7.03353 63.1637 7.50705 63.2184L16.5874 64.2291C16.9676 64.6272 17.3504 65.01 17.7358 65.3775L18.7962 74.4808C18.8513 74.9547 19.0164 75.4091 19.2783 75.8079C19.5401 76.2066 19.8915 76.5387 20.3045 76.7776C23.4557 78.6023 26.8347 80.0016 30.3533 80.9388C30.817 81.0621 31.3031 81.0747 31.7726 80.9756C32.242 80.8766 32.6816 80.6686 33.056 80.3684L40.1724 74.6875C40.7237 74.7028 41.2749 74.7028 41.8262 74.6875L48.9618 80.3991C49.3365 80.6985 49.7762 80.9058 50.2457 81.0042C50.7151 81.1026 51.2011 81.0894 51.6645 80.9656C55.1841 80.0293 58.5633 78.6287 61.7133 76.8006C62.1255 76.5613 62.4762 76.229 62.7374 75.8302C62.9985 75.4315 63.163 74.9773 63.2178 74.5037L64.2284 65.4234C64.6265 65.0457 65.0093 64.6629 65.3768 64.275L74.4801 63.2031C74.954 63.148 75.4084 62.9829 75.8072 62.721C76.206 62.4592 76.5381 62.1078 76.777 61.6948C78.6017 58.5437 80.0009 55.1647 80.9381 51.646C81.0614 51.1823 81.074 50.6962 80.975 50.2267C80.8759 49.7573 80.6679 49.3177 80.3678 48.9434L74.6868 41.8269ZM40.9993 56.3125C37.9708 56.3125 35.0103 55.4144 32.4922 53.7319C29.974 52.0493 28.0114 49.6578 26.8524 46.8598C25.6934 44.0618 25.3902 40.983 25.981 38.0127C26.5719 35.0423 28.0303 32.3139 30.1717 30.1724C32.3132 28.0309 35.0417 26.5726 38.012 25.9817C40.9823 25.3909 44.0612 25.6941 46.8592 26.8531C49.6572 28.0121 52.0486 29.9747 53.7312 32.4928C55.4138 35.011 56.3118 37.9715 56.3118 41C56.3118 45.0611 54.6985 48.9559 51.8269 51.8276C48.9552 54.6992 45.0604 56.3125 40.9993 56.3125Z" fill="#9BC7F9"/>
	</g>
</svg>