<svg width="115" height="39" viewBox="0 0 115 39" fill="none" xmlns="http://www.w3.org/2000/svg">
<g clip-path="url(#clip0_4777_28188)">
<path d="M52.3278 26.5107C51.0905 27.7435 49.5789 28.3608 47.7949 28.3608C46.0109 28.3608 44.5033 27.7454 43.2738 26.5107C42.0444 25.276 41.4287 23.7663 41.4287 21.9775C41.4287 20.1888 42.0444 18.6771 43.2738 17.4444C44.5033 16.2116 46.0109 15.5943 47.7949 15.5943C49.5789 15.5943 51.0905 16.2116 52.3278 17.4444C53.5651 18.6771 54.1848 20.1888 54.1848 21.9775C54.1848 23.7663 53.5651 25.278 52.3278 26.5107ZM45.4683 24.3718C46.0879 25.001 46.8635 25.3156 47.7949 25.3156C48.7263 25.3156 49.5058 25.001 50.1334 24.3718C50.7609 23.7425 51.0747 22.9451 51.0747 21.9775C51.0747 21.01 50.7609 20.2126 50.1334 19.5833C49.5058 18.9541 48.7263 18.6395 47.7949 18.6395C46.8635 18.6395 46.0879 18.9541 45.4683 19.5833C44.8486 20.2126 44.5408 21.01 44.5408 21.9775C44.5408 22.9451 44.8506 23.7425 45.4683 24.3718ZM59.0078 23.2597C59.4261 24.7754 60.5589 25.5313 62.4079 25.5313C63.5979 25.5313 64.4978 25.1276 65.1095 24.3223L67.6177 25.7727C66.4278 27.4981 64.6754 28.3588 62.3606 28.3588C60.3675 28.3588 58.767 27.7553 57.5613 26.5463C56.3555 25.3374 55.7536 23.8138 55.7536 21.9775C55.7536 20.1413 56.3476 18.6375 57.5376 17.4206C58.7276 16.2037 60.255 15.5943 62.1198 15.5943C63.888 15.5943 65.3463 16.2077 66.4968 17.4325C67.6454 18.6573 68.2216 20.173 68.2216 21.9775C68.2216 22.3812 68.1821 22.8086 68.1012 23.2597H59.0097H59.0078ZM58.9604 20.8418H65.1095C64.9319 20.0186 64.5668 19.4072 64.0123 19.0036C63.4578 18.5999 62.8263 18.4001 62.1198 18.4001C61.2831 18.4001 60.5924 18.6138 60.0458 19.0412C59.4992 19.4686 59.138 20.0681 58.9604 20.8418ZM83.7227 15.5943C85.106 15.5943 86.2111 16.0454 87.038 16.9477C87.8648 17.85 88.2793 19.059 88.2793 20.5747V28.0205H85.1692V20.7923C85.1692 20.0661 84.9916 19.5022 84.6383 19.1005C84.2851 18.6969 83.7858 18.4951 83.1425 18.4951C82.436 18.4951 81.8834 18.7285 81.4907 19.1975C81.0961 19.6645 80.8987 20.3412 80.8987 21.2276V28.0205H77.7886V20.7923C77.7886 20.0661 77.611 19.5022 77.2578 19.1005C76.9046 18.6969 76.4053 18.4951 75.7639 18.4951C75.0732 18.4951 74.5227 18.7285 74.1122 19.1975C73.7017 19.6645 73.4965 20.3412 73.4965 21.2276V28.0205H70.3864V15.9326H73.4965V17.2148C74.2207 16.1345 75.3377 15.5943 76.8473 15.5943C78.357 15.5943 79.4187 16.174 80.1271 17.3355C80.9303 16.176 82.1281 15.5943 83.7187 15.5943H83.7227ZM94.1876 27.7316C93.785 28.1352 93.3035 28.3371 92.7411 28.3371C92.1787 28.3371 91.6972 28.1352 91.2946 27.7316C90.892 27.3279 90.6927 26.8451 90.6927 26.2812C90.6927 25.7173 90.894 25.2325 91.2946 24.8308C91.6972 24.4272 92.1787 24.2273 92.7411 24.2273C93.3035 24.2273 93.787 24.4291 94.1876 24.8308C94.5902 25.2345 94.7915 25.7173 94.7915 26.2812C94.7915 26.8451 94.5902 27.3299 94.1876 27.7316ZM105.594 15.9346H108.704V28.0224H105.594V26.5958C104.662 27.7731 103.352 28.3608 101.663 28.3608C99.9736 28.3608 98.6771 27.7454 97.5266 26.5107C96.3781 25.278 95.8019 23.7663 95.8019 21.9775C95.8019 20.1888 96.3761 18.6771 97.5266 17.4444C98.6751 16.2116 100.055 15.5943 101.663 15.5943C103.35 15.5943 104.66 16.182 105.594 17.3593V15.9326V15.9346ZM99.8552 24.4331C100.483 25.0702 101.278 25.3888 102.243 25.3888C103.208 25.3888 104.007 25.0702 104.643 24.4331C105.278 23.796 105.596 22.9788 105.596 21.9795C105.596 20.9803 105.278 20.1631 104.643 19.5259C104.007 18.8888 103.208 18.5702 102.243 18.5702C101.278 18.5702 100.483 18.8888 99.8552 19.5259C99.2277 20.1631 98.9159 20.9803 98.9159 21.9795C98.9159 22.9788 99.2297 23.7979 99.8552 24.4331ZM113.069 14.4823C112.554 14.4823 112.108 14.2923 111.731 13.9144C111.354 13.5365 111.165 13.0893 111.165 12.5728C111.165 12.0564 111.354 11.6052 111.731 11.2194C112.108 10.8336 112.556 10.6396 113.069 10.6396C113.582 10.6396 114.054 10.8336 114.431 11.2194C114.808 11.6072 114.997 12.0584 114.997 12.5728C114.997 13.0873 114.808 13.5365 114.431 13.9144C114.052 14.2923 113.598 14.4823 113.069 14.4823ZM39.404 20.7745V28.0224H36.2939V21.1623C36.2939 20.357 36.0768 19.7396 35.6427 19.3123C35.2085 18.8849 34.6303 18.6712 33.9061 18.6712C33.1819 18.6712 32.6037 18.8849 32.1695 19.3123C31.7354 19.7396 31.5183 20.357 31.5183 21.1623V28.0224H28.4082V20.7745C28.4082 13.8788 39.404 13.8788 39.404 20.7745ZM111.526 28.0224V15.9346H114.636V28.0224H111.526Z" fill="white"/>
<path fill-rule="evenodd" clip-rule="evenodd" d="M6.63804 21.6766C4.06473 22.4265 1.33156 23.7839 1.4776 27.1852C0.857948 26.8746 0.382358 26.3166 0.15147 25.632C-0.266891 24.3893 0.263954 23.3525 0.743491 22.2543L10.2257 0.565906C10.3757 0.223592 10.6638 0 11.019 0C11.3742 0 11.6623 0.223592 11.8123 0.565906L21.2965 22.2563C21.776 23.3525 22.3069 24.3913 21.8885 25.6339C21.6576 26.3186 21.18 26.8766 20.5624 27.1872C20.7064 23.7839 17.9733 22.4285 15.4019 21.6785C12.0471 20.7011 9.9948 20.7011 6.64002 21.6785" fill="#0160C9"/>
<path fill-rule="evenodd" clip-rule="evenodd" d="M11.8285 38.5904L18.0289 30.2048C18.8854 29.0472 19.0985 27.6602 18.6288 26.2988C18.1592 24.9355 17.1389 23.9778 15.7516 23.5959L11.0194 22.2939L6.28717 23.5959C4.89986 23.9778 3.87962 24.9355 3.40995 26.2988C2.94028 27.6621 3.1534 29.0472 4.00986 30.2048L10.2103 38.5904C10.4057 38.8556 10.6898 38.9981 11.0194 38.9981C11.3489 38.9981 11.6311 38.8556 11.8285 38.5904Z" fill="#A5D7EE"/>
<path fill-rule="evenodd" clip-rule="evenodd" d="M11.0181 19.6997C12.8317 19.6997 14.3019 20.7504 14.3019 22.0445C14.3019 23.3385 12.8317 24.3892 11.0181 24.3892C9.20456 24.3892 7.73438 23.3385 7.73438 22.0445C7.73438 20.7504 9.20456 19.6997 11.0181 19.6997Z" fill="#EEB088"/>
</g>
<defs>
<clipPath id="clip0_4777_28188">
<rect width="115" height="39" fill="white"/>
</clipPath>
</defs>
</svg>
